<svg xmlns="http://www.w3.org/2000/svg" width="2048" height="2048" version="1.0" viewBox="470 620 600 600">
    <g fill="#1F88FF">
        <path d="M765.3 643.8c-9.9 3.3-17.7 10.8-20.8 19.9-1.4 4.1-3.1 5.2-34.5 22.3-6.9 3.7-20.8 11.3-30.9 16.9-10.2 5.5-18.8 10.1-19.2 10.1s-.9.3-1.1.7c-.1.5-4.1 2.8-8.8 5.2s-9.7 5.2-11.2 6.2c-1.4 1.1-2.9 1.9-3.2 1.9s-9.5 4.9-20.3 10.9c-10.9 5.9-22.9 12.5-26.8 14.6-3.8 2.1-11 6.1-16 9-4.9 2.9-11.6 6.1-14.7 7.1-3.2 1-5.8 2.1-5.8 2.6 0 .4-.6.8-1.4.8-2.9 0-10.6 8.2-13.8 14.7-2.8 5.8-3.2 7.5-3.2 14.7.1 10.4 3 17.1 10.6 24.7 3.8 3.8 7.3 9 11.8 17.4 3.5 6.6 11.3 20.8 17.3 31.5s17.6 31.6 25.7 46.5c8.2 14.8 23.1 41.8 33.3 60l18.5 33 21.8 12.4c38.7 21.8 44.6 25.1 45.7 25.1.5 0 4.4-2 8.6-4.4s9.9-5.6 12.6-7.1c12.7-7.1 19.1-10.7 19.7-11.4.7-.6-21.6-13.7-58.5-34.1l-19-10.5-4.4-8c-2.5-4.4-6.1-10.9-8.1-14.5-15.6-28.2-22.9-41.4-26-47-1.9-3.6-5-9.1-6.8-12.3-1.9-3.2-3.4-6.1-3.4-6.6 0-.4-1-1.8-2.2-3.1-1.3-1.4-2.2-2.7-2-3 .1-.3-6.2-12.2-14.2-26.5-7.9-14.3-16.2-29.4-18.5-33.6l-4.1-7.6 3.2-5.8c2.7-5 3.3-7.3 3.6-14.2l.5-8.4 14.3-8c7.9-4.5 14.4-8.4 14.4-8.8s.6-.8 1.3-.8c.6 0 10.9-5.3 22.7-11.8s24.4-13.4 28-15.3c3.6-2 15.1-8.3 25.5-14 10.5-5.8 24-13.2 30-16.4 6.1-3.3 14.1-7.8 17.8-10.1l6.9-4 4.6 1.6c14.9 5.4 32.6-1.5 39.5-15.3 2.9-5.9 3.2-7.3 3.2-16 0-11.1-2.1-16.7-8.9-23.5-8.4-8.3-22.1-11.5-33.3-7.7"/>
        <path d="M863.5 703.9c-2.7 1.5-7.2 4.1-10 5.6-2.7 1.5-12.1 6.8-20.8 11.6-8.7 4.9-16 8.9-16.3 8.9-.2 0-2.3 1.2-4.7 2.7-2.3 1.4-4.7 2.6-5.4 2.6s-1 .4-.7.9c.3.4.1.8-.5.8-.5 0-4.1 1.8-8 4.1-3.9 2.2-7.6 3.7-8.2 3.3-.7-.4-.9-.3-.6.2.3.6-4.2 3.7-10 6.9-5.9 3.3-14.3 8.1-18.7 10.6-4.5 2.5-16.2 9.1-26.1 14.6-15.6 8.7-29.5 16.6-42.5 24-3.4 1.9-14.6 8.1-27.7 15.4-3.6 2-7.9 4.7-9.7 6.1-4.2 3.3-23 37-22.1 39.7.7 2.3 21.2 39.2 22.4 40.4.5.5 3.9-4.7 7.8-12 16.3-30 19.6-35.9 20.6-37.1.9-1.1 10.1-6.5 24.7-14.5 3-1.7 19.9-11.2 37.5-21.2s44.4-25 59.5-33.5c15.1-8.4 35.8-20 45.9-25.7l18.4-10.3 9.1 4.8c5 2.7 15.2 8.2 22.6 12.4 7.4 4.1 16.7 9.2 20.5 11.3 3.9 2.1 9.4 5.1 12.3 6.7 2.8 1.7 5.2 2.6 5.2 2.1 0-.4.4-.3.8.3s3.6 2.9 7.2 5.1c6.3 3.8 6.5 4.1 6.2 7.6-.5 4.9 2.4 15.4 5.3 19.9l2.4 3.6-7 12.4c-3.8 6.8-8.6 15.4-10.5 19.3l-3.6 7 10.7 19c5.9 10.4 11.4 20.1 12.2 21.4l1.5 2.3 2.4-4.1c1.3-2.3 5.1-9.4 8.5-15.9 3.3-6.4 7.2-13.6 8.6-15.9 1.3-2.3 2.1-4.8 1.7-5.4-.4-.7-.3-.9.4-.5.6.3 3-3 5.8-8.1 2.6-4.9 6.1-11.3 7.7-14.3 1.7-3 3.5-6.4 4.1-7.6.6-1.1 2.8-3.5 4.8-5.3 2.1-1.8 5.3-6.4 7.3-10.3 3-6 3.5-8.1 3.5-13.8 0-16.2-8.9-28.7-24.1-33.6-3-1-12.5-5.7-21.1-10.5-17.5-9.8-25.5-14-26.4-13.8-.4 0-1-.3-1.3-.8-.7-1-24.6-14.3-25.7-14.3-.4 0-1.5-.6-2.3-1.4-.9-.8-6.1-3.8-11.6-6.8s-15.9-8.7-23.1-12.6c-7.3-4-13.3-7.2-13.5-7.2s-2.6 1.3-5.4 2.9"/>
        <path d="M830 787.1c-1.9 1.2-8 4.6-13.5 7.7-5.5 3-13.3 7.4-17.3 9.7l-7.3 4.2 21.8 12.4c12 6.8 23.4 13.3 25.4 14.4s9.4 5.3 16.5 9.3l13 7.4 13.4 23.6c7.3 13 22.3 39.9 33.3 59.7s25.6 45.9 32.3 57.9l12.3 21.9-2.3 4.1c-3.4 5.9-4.7 10.7-4.9 17.8l-.2 6.2-4.5 2.7c-2.5 1.5-29.6 16.5-60.2 33.4-31.2 17.3-55.5 31.2-55.1 31.8.3.6.1.7-.5.3-.7-.4-9.7 4-20.2 9.8-10.5 5.9-19.6 10.6-20.4 10.6-.7 0-3-.7-4.9-1.5-4.1-1.7-18.2-2.1-17.2-.5.3.5 0 .7-.8.4-3.8-1.4-14.6 6.4-19.4 13.9-13.3 21.1 2 50 26.6 49.8 3.6 0 8.1-.5 9.9-1 7.7-2.3 18.2-10.6 16.7-13.2-.5-.8-.4-1 .4-.5.7.5 2-1.1 3.5-4.4 2.4-5.1 2.6-5.3 18.3-13.8 8.7-4.7 16-8.8 16.3-9.1s3.4-2.1 7-3.9c12.2-6.2 23-12.8 22.3-13.7-.5-.4-.2-.5.5-.1s3.3-.4 6-1.9c8.8-5.1 18.7-10.5 73.9-40.7 17.7-9.7 31-17.5 30.6-18.1-.3-.6-.1-.7.5-.3.6.3 3-.2 5.4-1.3s6.4-2.7 9-3.6c9.3-3.2 17-11 20.3-20.6 2.3-6.4 1.9-17.3-.8-23.9-1.3-3-2.8-5.4-3.5-5.3-.6.2-.9-.4-.6-1.1.3-.9-1.1-3.1-3.4-5.3-2.1-2.1-5.2-6.2-6.9-9-1.6-2.9-3.3-5-3.8-4.5-.4.4-.5.2-.1-.5.3-.6-3.8-9-9.2-18.5-5.5-9.5-12.6-22.1-15.9-28.1-3.3-5.9-6.3-10.5-6.6-10.2-.4.3-.5.2-.2-.2.5-.7-2.1-5.7-18.3-34.5-6-10.7-10.9-18.5-11.5-18.1-.6.3-.7.1-.3-.5.4-.7-2.8-7.4-7-14.9-4.2-7.6-11.7-21-16.6-29.8-5-8.8-10.2-17.5-11.6-19.3-1.8-2.2-9.4-7.2-22.1-14.3-10.7-6-19.5-10.9-19.7-10.9-.1 0-5.7-3.2-12.4-7-6.7-3.9-12.3-7-12.3-6.9-.1 0-1.8.9-3.7 2"/>
        <path d="M767.4 858c-30.8 4.7-54.3 33.6-52 64.1 1.8 24.6 16.4 44.6 39.4 53.7 6.1 2.4 8 2.6 20.7 2.7 16.2 0 22.8-1.7 33.5-8.6 32.5-21 37.4-67.6 10.1-94.7-7.4-7.3-17.4-13.2-26.2-15.6-7.3-1.9-19.1-2.6-25.5-1.6m17.6 33.6c10.8 3.2 19 14.9 19 27 0 20.7-21.7 34.1-40.4 25-23.5-11.5-19.5-46.4 5.9-52.7 5-1.2 9.9-1 15.5.7"/>
        <path d="M895.6 938.3c-1 1.7-6.1 11.1-11.4 20.7-15.5 28.3-11.6 24.4-39.9 40.3-13.7 7.7-27.3 15.3-30.3 17-3 1.6-15.4 8.6-27.5 15.5-19.9 11.4-67.6 38.2-86.5 48.7-4.1 2.3-9.5 5.3-12 6.7l-4.6 2.6-12.4-6.9c-6.9-3.9-15.8-8.8-19.8-11s-11.2-6.1-16-8.8c-10.3-5.6-19.4-10.6-27.7-15.1-3.3-1.8-6.5-3.6-7.1-4.1s-1.4-4.3-1.6-8.4c-.4-5.7-1.2-9-3.6-13.8l-3.2-6.4 9.5-17.4c5.3-9.6 9.8-18.3 10.1-19.5.4-1.4-3-8.4-10.7-22.2-6.2-11.1-11.5-20.2-11.8-20.2-.9 0-7.6 11.2-18.1 30.5-18.9 34.5-23.9 43.1-27.6 46.5-2 1.9-5.1 6.4-6.8 10-5.8 12.3-3.7 26.4 5.4 36.3 4.7 5.1 13.9 10.7 17.7 10.7 1 0 3.2.9 5 2 1.8 1 12.6 7.1 24 13.3 11.4 6.3 34.1 18.8 50.3 27.7s32.8 18 36.7 20.1l7.3 3.9 17.2-9.7c9.5-5.3 34.9-19.5 56.3-31.6 21.5-12.1 41-23.1 43.5-24.5s9.6-5.4 15.9-8.9c18.6-10.6 44.3-24.9 65-36.4l19.4-10.8 10.4-18.7c5.7-10.3 10.3-19.1 10.3-19.5 0-1.4-22.5-41.9-23.3-41.9-.1 0-1 1.5-2.1 3.3"/>
    </g>
</svg>