<?xml version="1.0" standalone="no"?>
<!DOCTYPE svg PUBLIC "-//W3C//DTD SVG 20010904//EN"
 "http://www.w3.org/TR/2001/REC-SVG-20010904/DTD/svg10.dtd">
<svg version="1.0" xmlns="http://www.w3.org/2000/svg"
 width="2816.000000pt" height="1536.000000pt" viewBox="0 0 2816.000000 1536.000000"
 preserveAspectRatio="xMidYMid meet">

<g transform="translate(0.000000,1536.000000) scale(0.100000,-0.100000)" stroke="none">
<path d="M9153 10422 c-99 -33 -177 -108 -208 -199 -14 -41 -31 -52 -345 -223
-69 -37 -208 -113 -309 -169 -102 -55 -188 -101 -192 -101 -4 0 -9 -3 -11 -7
-1 -5 -41 -28 -88 -52 -47 -24 -97 -52 -112 -62 -14 -11 -29 -19 -32 -19 -3 0
-95 -49 -203 -109 -109 -59 -229 -125 -268 -146 -38 -21 -110 -61 -160 -90
-49 -29 -116 -61 -147 -71 -32 -10 -58 -21 -58 -26 0 -4 -6 -8 -14 -8 -29 0
-106 -82 -138 -147 -28 -58 -32 -75 -32 -147 1 -104 30 -171 106 -247 38 -38
73 -90 118 -174 35 -66 113 -208 173 -315 60 -107 176 -316 257 -465 82 -148
231 -418 333 -600 l185 -330 218 -124 c387 -218 446 -251 457 -251 5 0 44 20
86 44 42 24 99 56 126 71 127 71 191 107 197 114 7 6 -216 137 -585 341 l-190
105 -44 80 c-25 44 -61 109 -81 145 -156 282 -229 414 -260 470 -19 36 -50 91
-68 123 -19 32 -34 61 -34 66 0 4 -10 18 -22 31 -13 14 -22 27 -20 30 1 3 -62
122 -142 265 -79 143 -162 294 -185 336 l-41 76 32 58 c27 50 33 73 36 142 l5
84 143 80 c79 45 144 84 144 88 0 4 6 8 13 8 6 0 109 53 227 118 118 65 244
134 280 153 36 20 151 83 255 140 105 58 240 132 300 164 61 33 141 78 178
101 l69 40 46 -16 c149 -54 326 15 395 153 29 59 32 73 32 160 0 111 -21 167
-89 235 -84 83 -221 115 -333 77z" fill="#025787"/>
<path d="M10135 9821 c-27 -15 -72 -41 -100 -56 -27 -15 -121 -68 -208 -116
-87 -49 -160 -89 -163 -89 -2 0 -23 -12 -47 -27 -23 -14 -47 -26 -54 -26 -7 0
-10 -4 -7 -9 3 -4 1 -8 -5 -8 -5 0 -41 -18 -80 -41 -39 -22 -76 -37 -82 -33
-7 4 -9 3 -6 -2 3 -6 -42 -37 -100 -69 -59 -33 -143 -81 -187 -106 -45 -25
-162 -91 -261 -146 -156 -87 -295 -166 -425 -240 -34 -19 -146 -81 -277 -154
-36 -20 -79 -47 -97 -61 -42 -33 -230 -370 -221 -397 7 -23 212 -392 224 -404
5 -5 39 47 78 120 163 300 196 359 206 371 9 11 101 65 247 145 30 17 199 112
375 212 176 100 444 250 595 335 151 84 358 200 459 257 l184 103 91 -48 c50
-27 152 -82 226 -124 74 -41 167 -92 205 -113 39 -21 94 -51 123 -67 28 -17
52 -26 52 -21 0 4 4 3 8 -3 4 -6 36 -29 72 -51 63 -38 65 -41 62 -76 -5 -49
24 -154 53 -199 l24 -36 -70 -124 c-38 -68 -86 -154 -105 -193 l-36 -70 107
-190 c59 -104 114 -201 122 -214 l15 -23 24 41 c13 23 51 94 85 159 33 64 72
136 86 159 13 23 21 48 17 54 -4 7 -3 9 4 5 6 -3 30 30 58 81 26 49 61 113 77
143 17 30 35 64 41 76 6 11 28 35 48 53 21 18 53 64 73 103 30 60 35 81 35
138 0 162 -89 287 -241 336 -30 10 -125 57 -211 105 -175 98 -255 140 -264
138 -4 0 -10 3 -13 8 -7 10 -246 143 -257 143 -4 0 -15 6 -23 14 -9 8 -61 38
-116 68 -55 30 -159 87 -231 126 -73 40 -133 72 -135 72 -2 0 -26 -13 -54 -29z" fill="#025787"/>
<path d="M12660 8315 l0 -1005 740 0 740 0 0 195 0 195 -502 2 -503 3 3 808 3
807 -241 0 -240 0 0 -1005z" fill="#012B53"/>
<path d="M9800 8989 c-19 -12 -80 -46 -135 -77 -55 -30 -133 -74 -173 -97
l-73 -42 218 -124 c120 -68 234 -133 254 -144 20 -11 94 -53 165 -93 l130 -74
134 -236 c73 -130 223 -399 333 -597 110 -198 256 -459 323 -579 l123 -219
-23 -41 c-34 -59 -47 -107 -49 -178 l-2 -62 -45 -27 c-25 -15 -296 -165 -602
-334 -312 -173 -555 -312 -551 -318 3 -6 1 -7 -5 -3 -7 4 -97 -40 -202 -98
-105 -59 -196 -106 -204 -106 -7 0 -30 7 -49 15 -41 17 -182 21 -172 5 3 -5 0
-7 -8 -4 -38 14 -146 -64 -194 -139 -133 -211 20 -500 266 -498 36 0 81 5 99
10 77 23 182 106 167 132 -5 8 -4 10 4 5 7 -5 20 11 35 44 24 51 26 53 183
138 87 47 160 88 163 91 3 3 34 21 70 39 122 62 230 128 223 137 -5 4 -2 5 5
1 7 -4 33 4 60 19 88 51 187 105 739 407 177 97 310 175 306 181 -3 6 -1 7 5
3 6 -3 30 2 54 13 24 11 64 27 90 36 93 32 170 110 203 206 23 64 19 173 -8
239 -13 30 -28 54 -35 53 -6 -2 -9 4 -6 11 3 9 -11 31 -34 53 -21 21 -52 62
-69 90 -16 29 -33 50 -38 45 -4 -4 -5 -2 -1 5 3 6 -38 90 -92 185 -55 95 -126
221 -159 281 -33 59 -63 105 -66 102 -4 -3 -5 -2 -2 2 5 7 -21 57 -183 345
-60 107 -109 185 -115 181 -6 -3 -7 -1 -3 5 4 7 -28 74 -70 149 -42 76 -117
210 -166 298 -50 88 -102 175 -116 193 -18 22 -94 72 -221 143 -107 60 -195
109 -197 109 -1 0 -57 32 -124 70 -67 39 -123 70 -123 69 -1 0 -18 -9 -37 -20z" fill="#025787"/>
<path d="M20537 8879 c-203 -17 -362 -77 -470 -179 -35 -32 -75 -81 -90 -108
-57 -105 -72 -233 -39 -340 56 -178 206 -275 503 -322 352 -56 390 -68 421
-129 31 -62 -8 -125 -95 -151 -72 -21 -185 -23 -306 -6 -136 20 -238 52 -345
106 -44 22 -81 39 -82 37 -14 -15 -143 -314 -140 -323 7 -18 124 -75 219 -108
137 -47 251 -67 423 -73 298 -11 504 47 651 180 132 121 174 338 98 504 -69
151 -201 216 -567 278 -235 39 -288 56 -323 97 -29 34 -32 66 -9 109 59 116
429 112 662 -5 l72 -36 9 22 c5 13 39 85 75 162 36 76 66 141 66 145 0 11
-142 69 -232 95 -144 41 -339 59 -501 45z" fill="#012B53"/>
<path d="M14920 8861 c-263 -58 -464 -212 -571 -436 -52 -109 -70 -180 -76
-311 -8 -148 12 -247 77 -379 98 -203 276 -348 517 -422 82 -25 101 -27 268
-27 167 0 186 2 268 27 299 92 492 286 568 572 29 111 29 288 0 399 -75 282
-285 489 -576 567 -116 31 -357 36 -475 10z m292 -362 c146 -31 253 -131 299
-280 35 -111 19 -261 -38 -358 -43 -75 -92 -119 -171 -159 -72 -35 -81 -37
-171 -37 -86 1 -103 4 -161 31 -36 17 -80 43 -98 59 -150 127 -185 399 -73
572 45 70 88 108 158 140 88 41 167 50 255 32z" fill="#012B53"/>
<path d="M16850 8865 c-308 -69 -526 -255 -621 -532 -32 -93 -33 -105 -34
-243 0 -168 13 -230 74 -355 97 -198 298 -359 531 -425 107 -31 335 -39 449
-16 169 35 280 89 392 194 60 56 149 174 149 198 0 5 -83 51 -184 101 l-185
92 -20 -33 c-33 -52 -117 -125 -175 -152 -146 -66 -359 -25 -462 89 -83 91
-127 249 -105 378 30 183 153 308 335 340 157 27 319 -46 416 -188 15 -22 15
-22 190 77 96 54 176 103 178 109 5 15 -68 118 -119 170 -83 82 -177 136 -316
177 -77 24 -109 27 -258 30 -123 3 -188 -1 -235 -11z" fill="#012B53"/>
<path d="M18025 8503 c-13 -585 0 -737 75 -888 111 -225 349 -349 635 -332
154 9 277 59 398 159 l47 40 0 -86 0 -86 215 0 215 0 0 775 0 775 -230 0 -230
0 0 -413 c0 -255 -4 -436 -11 -472 -21 -112 -89 -209 -181 -256 -59 -31 -204
-38 -276 -15 -70 24 -123 73 -158 148 l-29 63 -3 473 -3 472 -228 0 -229 0 -7
-357z" fill="#012B53"/>
<path d="M9174 8280 c-308 -47 -543 -336 -520 -641 18 -246 164 -446 394 -537
61 -24 80 -26 207 -27 162 0 228 17 335 86 325 210 374 676 101 947 -74 73
-174 132 -262 156 -73 19 -191 26 -255 16z m176 -336 c108 -32 190 -149 190
-270 0 -207 -217 -341 -404 -250 -235 115 -195 464 59 527 50 12 99 10 155 -7z" fill="#025787"/>
<path d="M10456 7477 c-10 -17 -61 -111 -114 -207 -155 -283 -116 -244 -399
-403 -137 -77 -273 -153 -303 -170 -30 -16 -154 -86 -275 -155 -199 -114 -676
-382 -865 -487 -41 -23 -95 -53 -120 -67 l-46 -26 -124 69 c-69 39 -158 88
-198 110 -40 22 -112 61 -160 88 -103 56 -194 106 -277 151 -33 18 -65 36 -71
41 -6 5 -14 43 -16 84 -4 57 -12 90 -36 138 l-32 64 95 174 c53 96 98 183 101
195 4 14 -30 84 -107 222 -62 111 -115 202 -118 202 -9 0 -76 -112 -181 -305
-189 -345 -239 -431 -276 -465 -20 -19 -51 -64 -68 -100 -58 -123 -37 -264 54
-363 47 -51 139 -107 177 -107 10 0 32 -9 50 -20 18 -10 126 -71 240 -133 114
-63 341 -188 503 -277 162 -89 328 -180 367 -201 l73 -39 172 97 c95 53 349
195 563 316 215 121 410 231 435 245 25 14 96 54 159 89 186 106 443 249 650
364 l194 108 104 187 c57 103 103 191 103 195 0 14 -225 419 -233 419 -1 0
-10 -15 -21 -33z" fill="#025787"/>
<path d="M14290 6701 c-75 -11 -164 -38 -223 -68 -45 -22 -147 -107 -147 -122
0 -3 23 -26 50 -49 l51 -44 45 42 c25 23 75 56 112 73 64 31 72 32 192 32 117
0 128 -2 177 -27 123 -65 155 -197 83 -345 -26 -53 -73 -103 -353 -375 l-322
-313 -3 -57 -3 -58 466 0 465 0 0 65 0 65 -356 0 c-196 0 -354 4 -352 8 2 4
116 117 253 250 138 133 267 263 287 290 165 219 134 477 -72 582 -84 43 -241
65 -350 51z" fill="#012B53"/>
<path d="M12660 6040 l0 -650 360 0 c288 0 376 3 438 16 144 29 224 80 278
176 27 49 29 61 29 153 0 81 -4 109 -21 146 -32 68 -91 128 -156 159 l-57 27
52 34 c63 42 103 104 118 184 28 151 -37 287 -170 354 -88 45 -144 51 -518 51
l-353 0 0 -650z m736 507 c73 -24 116 -56 142 -107 50 -100 12 -228 -83 -278
-69 -36 -125 -42 -387 -42 l-258 0 0 226 0 226 268 -4 c210 -4 278 -9 318 -21z
m79 -585 c28 -13 63 -35 79 -50 93 -88 86 -254 -14 -333 -64 -51 -124 -59
-442 -59 l-288 0 0 236 0 235 308 -3 c296 -3 309 -4 357 -26z" fill="#012B53"/>
<path d="M15140 6040 l0 -650 365 0 c397 0 467 7 572 56 71 34 139 111 159
182 22 75 15 189 -16 260 -27 63 -101 133 -165 158 -25 9 -45 19 -44 23 0 3
21 20 47 36 89 57 142 176 128 291 -8 69 -29 116 -73 165 -49 55 -105 85 -198
109 -71 18 -111 20 -427 20 l-348 0 0 -650z m740 502 c109 -36 154 -94 155
-202 0 -81 -22 -122 -88 -167 -70 -47 -122 -54 -402 -51 l-250 3 -3 210 c-1
115 0 216 3 223 4 12 50 13 263 10 229 -4 264 -7 322 -26z m35 -567 c125 -32
185 -105 185 -224 0 -118 -53 -184 -175 -216 -47 -12 -120 -15 -347 -15 l-288
0 0 235 0 235 283 0 c221 0 296 -3 342 -15z" fill="#012B53"/>
</g>
</svg>
